<svg xmlns="http://www.w3.org/2000/svg" xmlns:xlink="http://www.w3.org/1999/xlink" width="500" zoomAndPan="magnify" viewBox="0 0 375 374.999991" height="500" preserveAspectRatio="xMidYMid meet" version="1.0"><path fill="#000000" d="M 105.863281 69.074219 L 105.863281 0 L 187.3125 0 C 216.414062 0 244.085938 6.75 268.761719 18.675781 L 268.761719 187.5 C 268.761719 209.925781 259.761719 230.101562 244.835938 245.023438 C 230.289062 259.574219 209.738281 268.949219 187.3125 268.949219 C 164.886719 268.949219 144.710938 259.574219 129.789062 245.023438 C 115.238281 230.101562 105.863281 209.925781 105.863281 187.5 Z M 305.738281 42.226562 C 347.960938 76.574219 374.8125 128.851562 374.8125 187.5 C 374.8125 290.625 290.4375 375 187.3125 375 C 84.261719 375 0.1875 290.625 0.1875 187.5 L 0.1875 0 L 69.261719 0 L 69.261719 187.5 C 69.261719 219.976562 82.6875 249.523438 103.988281 270.824219 C 125.289062 292.5 154.761719 305.550781 187.3125 305.550781 L 187.3125 268.949219 L 187.3125 305.550781 C 219.789062 305.550781 249.710938 292.5 271.011719 270.824219 C 292.3125 249.523438 305.738281 220.050781 305.738281 187.5 Z M 305.738281 42.226562 " fill-opacity="1" fill-rule="nonzero"/></svg>